<?xml version="1.0" standalone="no"?>
<!DOCTYPE svg PUBLIC "-//W3C//DTD SVG 20010904//EN"
 "http://www.w3.org/TR/2001/REC-SVG-20010904/DTD/svg10.dtd">
<svg version="1.0" xmlns="http://www.w3.org/2000/svg"
 width="30.000000pt" height="30.000000pt" viewBox="0 0 30.000000 30.000000"
 preserveAspectRatio="xMidYMid meet">

<g transform="translate(0.000000,30.000000) scale(0.100000,-0.100000)"
fill="#000000" stroke="none">
<path d="M244 275 c-3 -8 -2 -19 2 -26 4 -7 3 -9 -3 -6 -5 3 -27 -12 -48 -33
-31 -32 -43 -38 -63 -33 -17 4 -29 1 -36 -9 -7 -9 -28 -23 -49 -31 -50 -21
-52 -63 -6 -102 40 -33 69 -29 91 13 9 19 24 39 34 46 12 9 15 20 11 38 -6 22
2 34 53 81 33 31 60 61 60 66 0 16 -40 13 -46 -4z m-104 -150 c0 -8 -6 -15
-14 -15 -17 0 -28 14 -19 24 12 12 33 6 33 -9z"/>
</g>
</svg>
