<?xml version="1.0" standalone="no"?>
<!DOCTYPE svg PUBLIC "-//W3C//DTD SVG 20010904//EN"
 "http://www.w3.org/TR/2001/REC-SVG-20010904/DTD/svg10.dtd">
<svg version="1.0" xmlns="http://www.w3.org/2000/svg"
 width="30.000000pt" height="30.000000pt" viewBox="0 0 30.000000 30.000000"
 preserveAspectRatio="xMidYMid meet">

<g transform="translate(0.000000,30.000000) scale(0.100000,-0.100000)"
fill="#000000" stroke="none">
<path d="M96 263 c-16 -8 -31 -24 -33 -34 -3 -11 -11 -19 -18 -19 -6 0 -19 -8
-28 -18 -16 -17 -15 -20 11 -45 28 -27 29 -27 45 -9 9 10 17 23 17 28 0 5 10
14 22 19 13 6 24 19 26 30 5 26 30 45 60 45 13 0 20 4 17 10 -9 15 -86 10
-119 -7z"/>
<path d="M130 185 c-10 -12 0 -28 56 -89 64 -70 70 -74 86 -59 10 9 18 19 18
23 0 4 -33 37 -74 73 -62 56 -76 64 -86 52z"/>
</g>
</svg>
