<?xml version="1.0" standalone="no"?>
<!DOCTYPE svg PUBLIC "-//W3C//DTD SVG 20010904//EN"
 "http://www.w3.org/TR/2001/REC-SVG-20010904/DTD/svg10.dtd">
<svg version="1.0" xmlns="http://www.w3.org/2000/svg"
 width="50.000000pt" height="50.000000pt" viewBox="0 0 50.000000 50.000000"
 preserveAspectRatio="xMidYMid meet">

<g transform="translate(0.000000,50.000000) scale(0.100000,-0.100000)"
fill="#000000" stroke="none">
<path d="M123 484 c-8 -21 13 -42 28 -27 13 13 5 43 -11 43 -6 0 -13 -7 -17
-16z"/>
<path d="M182 488 c-17 -17 -15 -47 3 -54 21 -9 47 15 43 40 -4 24 -28 32 -46
14z m20 -30 c-7 -7 -12 -8 -12 -2 0 14 12 26 19 19 2 -3 -1 -11 -7 -17z"/>
<path d="M80 470 c0 -19 11 -26 23 -14 8 8 -3 34 -14 34 -5 0 -9 -9 -9 -20z"/>
<path d="M42 451 c4 -13 18 -16 19 -4 0 4 -5 9 -11 12 -7 2 -11 -2 -8 -8z"/>
<path d="M12 431 c4 -13 18 -16 19 -4 0 4 -5 9 -12 12 -6 2 -10 -2 -7 -8z"/>
<path d="M68 424 c-56 -30 -71 -97 -43 -191 24 -80 93 -126 137 -91 25 21 28
44 7 82 -24 46 -24 46 11 91 37 47 38 77 4 104 -31 24 -78 26 -116 5z m106
-20 c23 -23 20 -42 -14 -81 -35 -39 -37 -61 -11 -104 37 -60 -20 -97 -68 -45
-26 27 -51 103 -51 153 0 70 99 123 144 77z"/>
<path d="M273 354 c-8 -22 10 -49 33 -49 22 0 31 30 14 50 -16 20 -39 19 -47
-1z m37 -25 c0 -6 -4 -7 -10 -4 -5 3 -10 11 -10 16 0 6 5 7 10 4 6 -3 10 -11
10 -16z"/>
<path d="M343 354 c-8 -21 13 -42 28 -27 13 13 5 43 -11 43 -6 0 -13 -7 -17
-16z"/>
<path d="M397 346 c-6 -15 1 -26 15 -26 4 0 8 9 8 20 0 23 -15 27 -23 6z"/>
<path d="M435 321 c-6 -11 9 -23 19 -14 9 9 7 23 -3 23 -6 0 -12 -4 -16 -9z"/>
<path d="M316 289 c-34 -27 -33 -57 4 -104 35 -45 35 -45 11 -91 -21 -38 -18
-61 7 -81 62 -50 152 54 152 174 0 96 -104 157 -174 102z m125 -28 c33 -34 37
-71 15 -146 -17 -56 -51 -95 -82 -95 -36 0 -47 31 -23 69 26 43 24 65 -11 104
-34 39 -37 58 -14 81 26 27 81 20 115 -13z"/>
<path d="M465 301 c-6 -11 9 -23 19 -14 9 9 7 23 -3 23 -6 0 -12 -4 -16 -9z"/>
</g>
</svg>
