<?xml version="1.0" standalone="no"?>
<!DOCTYPE svg PUBLIC "-//W3C//DTD SVG 20010904//EN"
 "http://www.w3.org/TR/2001/REC-SVG-20010904/DTD/svg10.dtd">
<svg version="1.0" xmlns="http://www.w3.org/2000/svg"
 width="30.000000pt" height="30.000000pt" viewBox="0 0 30.000000 30.000000"
 preserveAspectRatio="xMidYMid meet">

<g transform="translate(0.000000,30.000000) scale(0.100000,-0.100000)"
fill="#000000" stroke="none">
<path d="M20 170 l0 -90 130 0 130 0 0 90 0 90 -130 0 -130 0 0 -90z m250 15
l0 -65 -120 0 -120 0 0 65 0 65 120 0 120 0 0 -65z"/>
<path d="M120 56 c0 -8 -8 -17 -17 -19 -10 -3 11 -5 47 -5 36 0 57 2 48 5 -10
2 -18 11 -18 19 0 9 -11 14 -30 14 -19 0 -30 -5 -30 -14z"/>
</g>
</svg>
