<?xml version="1.0" standalone="no"?>
<!DOCTYPE svg PUBLIC "-//W3C//DTD SVG 20010904//EN"
 "http://www.w3.org/TR/2001/REC-SVG-20010904/DTD/svg10.dtd">
<svg version="1.0" xmlns="http://www.w3.org/2000/svg"
 width="30.000000pt" height="30.000000pt" viewBox="0 0 30.000000 30.000000"
 preserveAspectRatio="xMidYMid meet">

<g transform="translate(0.000000,30.000000) scale(0.100000,-0.100000)"
fill="#000000" stroke="none">
<path d="M12 145 l3 -120 132 -3 133 -3 0 116 c0 144 -18 154 -23 13 l-3 -103
-2 110 -2 110 -120 0 -121 0 3 -120z m198 60 c0 -25 -1 -25 -85 -25 -84 0 -85
0 -85 25 0 25 1 25 85 25 84 0 85 0 85 -25z m-120 -70 c0 -20 -5 -25 -25 -25
-20 0 -25 5 -25 25 0 20 5 25 25 25 20 0 25 -5 25 -25z m53 18 c-7 -2 -21 -2
-30 0 -10 3 -4 5 12 5 17 0 24 -2 18 -5z m67 -18 c0 -20 -5 -25 -25 -25 -20 0
-25 5 -25 25 0 20 5 25 25 25 20 0 25 -5 25 -25z m-67 -2 c-7 -2 -21 -2 -30 0
-10 3 -4 5 12 5 17 0 24 -2 18 -5z m0 -20 c-7 -2 -21 -2 -30 0 -10 3 -4 5 12
5 17 0 24 -2 18 -5z m-60 -20 c-7 -2 -21 -2 -30 0 -10 3 -4 5 12 5 17 0 24 -2
18 -5z m60 0 c-7 -2 -21 -2 -30 0 -10 3 -4 5 12 5 17 0 24 -2 18 -5z m60 0
c-7 -2 -21 -2 -30 0 -10 3 -4 5 12 5 17 0 24 -2 18 -5z m-120 -20 c-7 -2 -21
-2 -30 0 -10 3 -4 5 12 5 17 0 24 -2 18 -5z m60 0 c-7 -2 -21 -2 -30 0 -10 3
-4 5 12 5 17 0 24 -2 18 -5z m60 0 c-7 -2 -21 -2 -30 0 -10 3 -4 5 12 5 17 0
24 -2 18 -5z m-120 -20 c-7 -2 -21 -2 -30 0 -10 3 -4 5 12 5 17 0 24 -2 18 -5z
m60 0 c-7 -2 -21 -2 -30 0 -10 3 -4 5 12 5 17 0 24 -2 18 -5z m60 0 c-7 -2
-21 -2 -30 0 -10 3 -4 5 12 5 17 0 24 -2 18 -5z"/>
</g>
</svg>
